<svg width="100" height="100" viewBox="0 0 100 100" fill="none" xmlns="http://www.w3.org/2000/svg">
<g clip-path="url(#clip0_0_801)">
<rect opacity="0.0229128" x="0.5" y="0.5" width="98.0099" height="99" stroke="#2B2B2B"/>
<g clip-path="url(#clip1_0_801)">
<path fill-rule="evenodd" clip-rule="evenodd" d="M30.2735 33.5171C37.8312 33.5229 43.9523 39.5952 43.9465 47.0809C43.9408 54.5667 37.81 60.6295 30.2523 60.6238C22.6946 60.6181 16.5735 54.5457 16.5792 47.06C16.585 39.5743 22.7158 33.5114 30.2735 33.5171Z" fill="#F9C900"/>
<path fill-rule="evenodd" clip-rule="evenodd" d="M27.0108 65.1471C27.0108 65.3109 26.9896 65.4747 26.9454 65.6404L24.6743 74.008C24.3993 75.0213 23.3473 75.6213 22.3243 75.349C21.2993 75.0766 20.6935 74.0347 20.9685 73.0213L23.2396 64.6537C23.5146 63.6404 24.5666 63.0404 25.5896 63.3109C26.4473 63.5394 27.0108 64.309 27.0108 65.1471Z" fill="#F9C900"/>
<path fill-rule="evenodd" clip-rule="evenodd" d="M17.5053 61.7118C17.5053 62.2242 17.2976 62.7347 16.8861 63.108L10.4534 68.9804C9.67456 69.6909 8.4611 69.6413 7.74379 68.8699C7.02456 68.0985 7.07456 66.8966 7.85341 66.1842L14.2861 60.3137C15.0669 59.6032 16.2803 59.6509 16.9976 60.4242C17.338 60.788 17.5053 61.2509 17.5053 61.7118Z" fill="#F9C900"/>
<mask id="mask0_0_801" style="mask-type:luminance" maskUnits="userSpaceOnUse" x="0" y="50" width="13" height="7">
<path fill-rule="evenodd" clip-rule="evenodd" d="M0 50.5831V56.5528H12.3067V50.5831L0 50.5831L0 50.5831Z" fill="white"/>
</mask>
<g mask="url(#mask0_0_801)">
<path fill-rule="evenodd" clip-rule="evenodd" d="M12.3067 52.4861C12.3067 53.3318 11.7317 54.1013 10.8682 54.3223L2.39901 56.4918C1.37401 56.7547 0.32593 56.1432 0.0605455 55.128C-0.202916 54.1128 0.412469 53.0747 1.43939 52.8118L9.90862 50.6442C10.9336 50.3813 11.9798 50.9908 12.2452 52.008C12.2875 52.168 12.3067 52.328 12.3067 52.4861Z" fill="#F9C900"/>
</g>
<path fill-rule="evenodd" clip-rule="evenodd" d="M12.576 41.8408C12.576 41.997 12.5567 42.155 12.5144 42.315C12.251 43.3303 11.2048 43.9417 10.1798 43.6808L1.70673 41.5208C0.681729 41.2598 0.0644211 40.2217 0.327883 39.2065C0.591344 38.1912 1.6375 37.5798 2.66442 37.8408L11.1356 40.0008C12.001 40.2217 12.576 40.9931 12.576 41.8408Z" fill="#F9C900"/>
<path fill-rule="evenodd" clip-rule="evenodd" d="M17.4581 32.5882C17.4581 33.0644 17.2792 33.5406 16.9177 33.9082C16.1812 34.6625 14.9658 34.6815 14.2042 33.952L7.92155 27.9234C7.16001 27.1939 7.14078 25.992 7.87732 25.2377C8.61386 24.4834 9.82924 24.4644 10.5908 25.1939L16.8735 31.2206C17.2639 31.5939 17.4581 32.0911 17.4581 32.5882Z" fill="#F9C900"/>
<path fill-rule="evenodd" clip-rule="evenodd" d="M26.3706 27.3051C26.3706 28.1547 25.7898 28.928 24.9206 29.1451C23.8937 29.4023 22.8494 28.7851 22.5917 27.7661L20.4533 19.3642C20.1956 18.3451 20.8187 17.3147 21.8456 17.0575C22.8725 16.8023 23.9167 17.4194 24.1744 18.4366L26.3129 26.8385C26.3514 26.9947 26.3706 27.1509 26.3706 27.3051Z" fill="#F9C900"/>
<path fill-rule="evenodd" clip-rule="evenodd" d="M39.2137 19.5223C39.2137 19.6823 39.1925 19.8442 39.1502 20.0061L36.9271 28.3851C36.6579 29.4004 35.6079 30.0061 34.5829 29.7394C33.5598 29.4728 32.9464 28.4328 33.2156 27.4194L35.4387 19.0385C35.7079 18.0251 36.7579 17.4175 37.7829 17.6842C38.6444 17.909 39.2137 18.6785 39.2137 19.5223Z" fill="#F9C900"/>
<path fill-rule="evenodd" clip-rule="evenodd" d="M53.1249 26.7573C53.1249 27.2869 52.9018 27.8145 52.4653 28.1897L45.8653 33.8773C45.0672 34.565 43.8537 34.4811 43.1595 33.6907C42.4633 32.8983 42.5479 31.6983 43.3479 31.0088L49.9479 25.3231C50.746 24.6335 51.9576 24.7173 52.6537 25.5097C52.971 25.8697 53.1249 26.3154 53.1249 26.7573Z" fill="#F9C900"/>
<path fill-rule="evenodd" clip-rule="evenodd" d="M59.9268 39.4385C59.9268 40.2728 59.3671 41.0366 58.5152 41.2689L50.0806 43.5604C49.0575 43.8385 48.0018 43.2442 47.7229 42.2309C47.4421 41.2175 48.0421 40.1737 49.0652 39.8956L57.4998 37.6042C58.5229 37.3261 59.5768 37.9204 59.8575 38.9337C59.9037 39.1013 59.9268 39.2709 59.9268 39.4385Z" fill="#F9C900"/>
<path fill-rule="evenodd" clip-rule="evenodd" d="M59.7817 54.2526C59.7817 54.4088 59.7624 54.5669 59.7201 54.7269C59.4567 55.7421 58.4105 56.3535 57.3855 56.0926L48.9124 53.9326C47.8874 53.6716 47.2682 52.6354 47.5336 51.6183C47.7971 50.603 48.8432 49.9916 49.8701 50.2526L58.3413 52.4126C59.2067 52.6335 59.7817 53.4049 59.7817 54.2526Z" fill="#F9C900"/>
<path fill-rule="evenodd" clip-rule="evenodd" d="M52.6179 67.2996C52.6179 67.7929 52.4256 68.2844 52.041 68.6558C51.2833 69.391 50.0679 69.3777 49.3276 68.6272L43.2122 62.431C42.4718 61.6806 42.4852 60.4787 43.2429 59.7453C44.0006 59.0101 45.216 59.0234 45.9564 59.7739L52.0718 65.9701C52.4372 66.3396 52.6179 66.8196 52.6179 67.2996Z" fill="#F9C900"/>
<path fill-rule="evenodd" clip-rule="evenodd" d="M39.4106 74.3069C39.4106 75.145 38.8472 75.9107 37.9914 76.1392C36.9683 76.4116 35.9145 75.8116 35.6395 74.7983L33.3625 66.4326C33.0875 65.4192 33.6933 64.3773 34.7164 64.103C35.7395 63.8307 36.7933 64.4307 37.0683 65.444L39.3433 73.8097C39.3895 73.9754 39.4106 74.143 39.4106 74.3069Z" fill="#F9C900"/>
<mask id="mask1_0_801" style="mask-type:luminance" maskUnits="userSpaceOnUse" x="33" y="31" width="67" height="39">
<path fill-rule="evenodd" clip-rule="evenodd" d="M99.3442 69.7371V31.8781H33.024V69.7371H99.3442Z" fill="white"/>
</mask>
<g mask="url(#mask1_0_801)">
<path fill-rule="evenodd" clip-rule="evenodd" d="M89.301 49.5733C94.8394 49.5733 99.3452 54.0952 99.3452 59.6571C99.3452 65.2152 94.8394 69.7371 89.301 69.7371H45.6298C38.6798 69.7371 33.024 64.0591 33.024 57.08C33.024 50.101 38.6798 44.4229 45.6298 44.4229C46.924 44.4229 48.2106 44.6229 49.449 45.0171L50.2587 45.2743L50.5433 44.4724C53.2125 36.9391 60.3452 31.8781 68.2914 31.8781C78.0067 31.8781 86.0702 39.1848 87.049 48.8762L87.1394 49.7733L88.0317 49.6629C88.524 49.6019 88.9279 49.5733 89.301 49.5733Z" fill="#BAC6D1"/>
</g>
<mask id="mask2_0_801" style="mask-type:luminance" maskUnits="userSpaceOnUse" x="6" y="40" width="74" height="43">
<path fill-rule="evenodd" clip-rule="evenodd" d="M6.62866 82.2621H79.896V40.5809H6.62866V82.2621Z" fill="white"/>
</mask>
<g mask="url(#mask2_0_801)">
<path fill-rule="evenodd" clip-rule="evenodd" d="M17.7248 60.0629C11.6075 60.0629 6.62866 65.0419 6.62866 71.1638C6.62866 77.2819 11.6075 82.2629 17.7248 82.2629H65.969C73.6498 82.2629 79.896 76.0114 79.896 68.3276C79.896 60.6438 73.6498 54.3924 65.969 54.3924C64.5402 54.3924 63.119 54.6133 61.7498 55.0457L60.8575 55.3295L60.5421 54.4457C57.594 46.1524 49.7133 40.5809 40.9344 40.5809C30.2017 40.5809 21.294 48.6267 20.2133 59.2952L20.1133 60.2838L19.1287 60.1619C18.5825 60.0933 18.1364 60.0629 17.7248 60.0629Z" fill="#D6E3F2"/>
</g>
</g>
</g>
<defs>
<clipPath id="clip0_0_801">
<rect width="100" height="100" fill="white"/>
</clipPath>
<clipPath id="clip1_0_801">
<rect width="100" height="66" fill="white" transform="translate(0 17)"/>
</clipPath>
</defs>
</svg>
