<svg width="100" height="100" viewBox="0 0 100 100" fill="none" xmlns="http://www.w3.org/2000/svg">
<g clip-path="url(#clip0_0_690)">
<rect opacity="0.0229128" x="0.5" y="0.5" width="99" height="99" stroke="#2B2B2B"/>
<g clip-path="url(#clip1_0_690)">
<mask id="mask0_0_690" style="mask-type:luminance" maskUnits="userSpaceOnUse" x="10" y="11" width="80" height="47">
<path fill-rule="evenodd" clip-rule="evenodd" d="M49.6679 11.8645H10V57.3845H89.3357V11.8645H49.6679Z" fill="white"/>
</mask>
<g mask="url(#mask0_0_690)">
<path fill-rule="evenodd" clip-rule="evenodd" d="M22.015 33.1403C15.391 33.1403 9.99979 38.5779 9.99979 45.2635C9.99979 51.9449 15.391 57.3845 22.015 57.3845H74.2552C82.5722 57.3845 89.3357 50.5575 89.3357 42.1661C89.3357 33.7748 82.5722 26.9477 74.2552 26.9477C72.708 26.9477 71.1692 27.189 69.6865 27.6612L68.7203 27.9711L68.3788 27.006C65.1865 17.949 56.653 11.8645 47.147 11.8645C35.5254 11.8645 25.8799 20.6511 24.7096 32.302L24.6013 33.3816L23.5351 33.2485C22.9437 33.1736 22.4606 33.1403 22.015 33.1403Z" fill="#D6E3F2"/>
</g>
<path fill-rule="evenodd" clip-rule="evenodd" d="M35.5918 69.9717C35.5918 72.7113 33.3679 74.9329 30.6254 74.9329C27.8829 74.9329 25.661 72.7113 25.661 69.9717C25.661 67.2322 27.8829 65.0106 30.6254 65.0106C33.3679 65.0106 35.5918 67.2322 35.5918 69.9717Z" fill="#4FB4ED"/>
<path fill-rule="evenodd" clip-rule="evenodd" d="M53.946 69.9717C53.946 72.7113 51.722 74.9329 48.9795 74.9329C46.237 74.9329 44.0152 72.7113 44.0152 69.9717C44.0152 67.2322 46.237 65.0106 48.9795 65.0106C51.722 65.0106 53.946 67.2322 53.946 69.9717Z" fill="#4FB4ED"/>
<path fill-rule="evenodd" clip-rule="evenodd" d="M72.4883 69.9717C72.4883 72.7113 70.2644 74.9329 67.5219 74.9329C64.7794 74.9329 62.5576 72.7113 62.5576 69.9717C62.5576 67.2322 64.7794 65.0106 67.5219 65.0106C70.2644 65.0106 72.4883 67.2322 72.4883 69.9717Z" fill="#4FB4ED"/>
<mask id="mask1_0_690" style="mask-type:luminance" maskUnits="userSpaceOnUse" x="35" y="78" width="11" height="11">
<path fill-rule="evenodd" clip-rule="evenodd" d="M35.0948 88.2977H45.0255V78.376H35.0948V88.2977H35.0948Z" fill="white"/>
</mask>
<g mask="url(#mask1_0_690)">
<path fill-rule="evenodd" clip-rule="evenodd" d="M45.0255 83.3371C45.0255 86.0767 42.8016 88.2983 40.0591 88.2983C37.3166 88.2983 35.0948 86.0767 35.0948 83.3371C35.0948 80.5976 37.3166 78.376 40.0591 78.376C42.8016 78.376 45.0255 80.5976 45.0255 83.3371Z" fill="#4FB4ED"/>
</g>
<mask id="mask2_0_690" style="mask-type:luminance" maskUnits="userSpaceOnUse" x="53" y="78" width="11" height="11">
<path fill-rule="evenodd" clip-rule="evenodd" d="M53.4221 88.2977H63.3528V78.376H53.4221V88.2977H53.4221Z" fill="white"/>
</mask>
<g mask="url(#mask2_0_690)">
<path fill-rule="evenodd" clip-rule="evenodd" d="M63.3528 83.3371C63.3528 86.0767 61.1289 88.2983 58.3864 88.2983C55.6439 88.2983 53.4221 86.0767 53.4221 83.3371C53.4221 80.5976 55.6439 78.376 58.3864 78.376C61.1289 78.376 63.3528 80.5976 63.3528 83.3371Z" fill="#4FB4ED"/>
</g>
<mask id="mask3_0_690" style="mask-type:luminance" maskUnits="userSpaceOnUse" x="72" y="78" width="11" height="11">
<path fill-rule="evenodd" clip-rule="evenodd" d="M72.4892 88.2977H82.42V78.376H72.4892V88.2977H72.4892Z" fill="white"/>
</mask>
<g mask="url(#mask3_0_690)">
<path fill-rule="evenodd" clip-rule="evenodd" d="M82.42 83.3371C82.42 86.0767 80.196 88.2983 77.4535 88.2983C74.7111 88.2983 72.4892 86.0767 72.4892 83.3371C72.4892 80.5976 74.7111 78.376 77.4535 78.376C80.196 78.376 82.42 80.5976 82.42 83.3371Z" fill="#4FB4ED"/>
</g>
</g>
</g>
<defs>
<clipPath id="clip0_0_690">
<rect width="100" height="100" fill="white"/>
</clipPath>
<clipPath id="clip1_0_690">
<rect width="80" height="78" fill="white" transform="translate(10 11)"/>
</clipPath>
</defs>
</svg>
