<svg width="101" height="100" viewBox="0 0 101 100" fill="none" xmlns="http://www.w3.org/2000/svg">
<g clip-path="url(#clip0_0_555)">
<rect opacity="0.0229128" x="1.5" y="0.5" width="98.0099" height="99" stroke="#2B2B2B"/>
<g clip-path="url(#clip1_0_555)">
<path fill-rule="evenodd" clip-rule="evenodd" d="M34.37 11.0025C31.2036 23.7501 26.4087 61.4105 75.8954 60.4919C77.2354 60.467 78.0476 61.9537 77.2704 63.0527C73.8876 67.832 64.6854 77.0361 44.7019 75.3421C44.7019 75.3421 15.9903 71.7736 14.7514 39.2576C14.7514 39.2576 13.5969 20.3103 31.7788 9.08452C33.1043 8.26758 34.7472 9.48677 34.37 11.0025" fill="#ADC1E3"/>
<path fill-rule="evenodd" clip-rule="evenodd" d="M31.8897 43.1161C32.304 46.6078 29.8241 49.774 26.3547 50.1908C22.8833 50.6075 19.7334 48.1132 19.3211 44.6235C18.9068 41.1318 21.3846 37.9636 24.8561 37.5489C28.3275 37.1321 31.4753 39.6244 31.8897 43.1161" fill="#8AA1C4"/>
<path fill-rule="evenodd" clip-rule="evenodd" d="M40.3919 61.7448C40.7053 64.3843 38.8314 66.7771 36.2072 67.0922C33.583 67.4074 31.2041 65.5226 30.8908 62.8831C30.5774 60.2436 32.4513 57.8508 35.0755 57.5356C37.6997 57.2205 40.0786 59.1052 40.3919 61.7448" fill="#8AA1C4"/>
<path fill-rule="evenodd" clip-rule="evenodd" d="M49.8396 61.4163C50.0994 63.6183 48.5368 65.6151 46.3496 65.8763C44.1604 66.1397 42.1752 64.568 41.9155 62.366C41.6537 60.166 43.2162 58.1672 45.4055 57.9059C47.5927 57.6426 49.5778 59.2143 49.8396 61.4163" fill="#8AA1C4"/>
<path fill-rule="evenodd" clip-rule="evenodd" d="M65.539 65.5493C65.7349 67.2081 64.5578 68.7134 62.9086 68.9125C61.2595 69.1095 59.7629 67.9234 59.565 66.2647C59.3692 64.6059 60.5462 63.1006 62.1954 62.9036C63.8466 62.7045 65.3432 63.8906 65.539 65.5493" fill="#8AA1C4"/>
<path fill-rule="evenodd" clip-rule="evenodd" d="M30.5496 29.9305C30.7455 31.5893 29.5684 33.0947 27.9193 33.2937C26.2701 33.4907 24.7735 32.3047 24.5756 30.6459C24.3798 28.9871 25.5569 27.4818 27.206 27.2848C28.8572 27.0858 30.3538 28.2718 30.5496 29.9305" fill="#8AA1C4"/>
<path fill-rule="evenodd" clip-rule="evenodd" d="M88.6201 55.7603C94.5571 55.7603 99.387 60.6827 99.387 66.7372C99.387 72.7876 94.5571 77.71 88.6201 77.71H41.8071C34.3571 77.71 28.2944 71.529 28.2944 63.9318C28.2944 56.3346 34.3571 50.1536 41.8071 50.1536C43.1945 50.1536 44.5736 50.3714 45.9011 50.8006L46.769 51.0805L47.0741 50.2076C49.9353 42.007 57.5812 36.4978 66.099 36.4978C76.5134 36.4978 85.1569 44.4516 86.2062 55.0014L86.3031 55.978L87.2596 55.8577C87.7873 55.7914 88.2202 55.7603 88.6201 55.7603" fill="#BAC6D1"/>
<path fill-rule="evenodd" clip-rule="evenodd" d="M11.8942 67.1789C5.3368 67.1789 -0.000244141 72.5989 -0.000244141 79.263C-0.000244141 85.923 5.3368 91.3451 11.8942 91.3451H63.6093C71.8427 91.3451 78.5382 84.54 78.5382 76.1757C78.5382 67.8113 71.8427 61.0062 63.6093 61.0062C62.0777 61.0062 60.5543 61.2467 59.0865 61.7174L58.13 62.0263L57.792 61.0642C54.6318 52.0364 46.184 45.9715 36.7736 45.9715C25.2688 45.9715 15.7202 54.7298 14.5617 66.3433L14.4545 67.4194L13.3991 67.2867C12.8136 67.2121 12.3354 67.1789 11.8942 67.1789" fill="#D6E3F2"/>
</g>
</g>
<defs>
<clipPath id="clip0_0_555">
<rect width="101" height="100" fill="white"/>
</clipPath>
<clipPath id="clip1_0_555">
<rect width="100" height="84" fill="white" transform="translate(0 8)"/>
</clipPath>
</defs>
</svg>
